<svg id="Layer_1" data-name="Layer 1" xmlns="http://www.w3.org/2000/svg" viewBox="0 0 300 300"><defs><style>.cls-1{fill:#fff;}</style></defs><title>фейсбук</title><path class="cls-1" d="M239.28414,55.26451c-3.11328-19.30689-17.84224-34.8478-34.48372-43.97686A95.67351,95.67351,0,0,0,141.86737,1.13129,66.71167,66.71167,0,0,0,99.12126,28.186C90.17523,40.75318,86.18989,56.12912,84.4,71.24027a159.66,159.66,0,0,0,1.08025,41.90642l9.08943-11.932c-11.3693-.53381-22.56829-1.0551-33.94113-.131-3.76523.30593-8.426,2.68171-9.08943,6.9203-1.76562,11.28033-3.3769,23.12008-2.55778,34.546.48932,6.82554,1.77908,14.54832,8.33454,18.18539,4.75446,2.63785,11.87262,2.02343,17.03972,1.05849,4.30419-.80379,6.26664-1.79424,10.41378-1.16589L77.849,151.53861c2.48123,40.9928,5.49577,81.951,7.977,122.94384a9.68863,9.68863,0,0,0,9.42614,9.42614q46.77705,3.22251,93.688,3.17967a9.57935,9.57935,0,0,0,9.42614-9.42614,654.52084,654.52084,0,0,0-9.25747-119.66354l-9.08943,11.932,33.22438,1.26081c4.87887.18515,9.71785-4.47271,9.42614-9.42614l-1.03939-17.64956c-.323-5.48507.09605-11.7-2.33573-16.75817-4.71537-9.80815-16.21808-9.93554-25.6987-9.57444-7.7619.29563-15.58889,1.11319-23.35373.47333a21.92256,21.92256,0,0,1-3.71882-.65221c-.57936-.13653-1.18-.46906-1.75413-.56363,1.77953.29316.13549-.14763-.00315-.1576l.6875.5422q-.93111-.97622-.197-.16966c.44665.56559.83635,2.744.69736,1.24175a32.6528,32.6528,0,0,0-.87177-3.38718,121.36553,121.36553,0,0,1-1.889-19.38886c-.13634-3.39652-.20722-6.80067-.12237-10.19961.03247-1.30073.09725-2.59826.18294-3.89647.03945-.5975.09345-1.197.17164-1.79068-.18017,1.36795-.57291,1.26988.051.34237a9.21632,9.21632,0,0,0,.49094-1.521c-.68124,1.81022-.07005.189.23028-.24475.36961-.53374.664-1.11447,1.05639-1.63727-.19951.26585-1.0893,1.503.00432.14046.0334-.0416,1.84451-1.67681.72166-.77315-1.10206.88693.78746-.48939.85563-.52991a12.99475,12.99475,0,0,1,1.2768-.66678c-2.3275,1.05164.06572-.0398.40663.06131-1.72553-.51174-1.16427.36554-.12411.09962.8588-.21956-1.77276-.83862-.13534-.033.51473.25326,1.598.16272-.27507-.20749a4.89561,4.89561,0,0,1,1.26946.75669c-.828-1.11434.49282.90987.57891,1.06221a13.6086,13.6086,0,0,1,1.57121,4.009c1.5393,5.67882-.34351,11.76267,2.87653,16.99415,3.48376,5.65994,10.37918,7.18155,16.55669,7.22659,13.77984.10047,27.6569-.887,41.43064-1.33838,5.40137-.177,9.00628-4.193,9.42614-9.42614,1.04717-13.05223-.54833-25.97917-2.41012-38.88446-.72758-5.0433-7.1285-7.81112-11.59527-6.58358-5.41481,1.48807-7.31339,6.53653-6.58359,11.59526,1.62092,11.23559,2.64705,22.52607,1.7367,33.87278l9.42614-9.42614-24.79436.8125-11.44356.375c-1.71809.0563-3.47241.22322-5.19272.15089a5.30518,5.30518,0,0,0-1.67335.011q-2.9479-.88978.705.69529l1.28695,4.75755c-.64536-4.86553-.12149-9.637-1.2542-14.56133a33.89947,33.89947,0,0,0-4.29895-10.61027c-3.81974-5.9457-10.02044-10.02123-17.20783-10.10041-12.7895-.14089-22.40656,11.346-23.77985,23.26875-1.45952,12.67141-.24272,26.40628,1.97114,38.91858,1.05537,5.96479,3.26744,11.39162,8.66479,14.721,6.10157,3.76376,13.988,4.14943,20.95319,4.15336,7.92676.00447,15.86028-1.04207,23.78487-.75551a12.86518,12.86518,0,0,0,2.59795.16175,2.702,2.702,0,0,1,1.287.24476l-1.80851-2.33671c-.18107.10111.57069,7.07742.60317,7.62883l1.1488,19.50741,9.42613-9.42613-33.22438-1.26081c-6.64214-.25206-10.05861,6.19513-9.08942,11.932a627.1896,627.1896,0,0,1,8.584,114.65186l9.42614-9.42614q-46.88793.045-93.688-3.17966l9.42614,9.42613c-2.48124-40.9928-5.49578-81.951-7.977-122.94384-.22663-3.74423-2.73762-8.4557-6.9203-9.08943-7.78332-1.17928-16.56977-.046-23.0654,1.22265-1.95115.38106-1.11888-.17037.37184,1.10777.30765.26377,1.64954,1.83814,1.3827,1.46985-.81846-1.12961-.03369-.267.14871.47435-.1313-.5337-.333-1.047-.43577-1.59008-.11413-.60317-.24232-1.19781-.33839-1.80541.14126.89341.1278,1.109.05532.08205-.1061-1.50349-.18638-3.00265-.20971-4.51a148.20227,148.20227,0,0,1,1.02462-17.94423q.21685-2.03706.46745-4.07028c.13448-1.093.50221-3.6151.124-1.03408.1385-.94522.26379-1.89224.41153-2.83612L60.6285,119.936c11.37194-.924,22.57283-.40273,33.94113.131,6.75027.31693,9.92069-6.24687,9.08942-11.932-.39148-2.67741.17007,1.72521-.15838-1.1585-.11639-1.02186-.23909-2.04258-.34392-3.0658q-.39084-3.81493-.60032-7.6454a151.80041,151.80041,0,0,1,.01281-17.34639c.64969-10.89517,3.13011-23.71611,8.14364-33.48049,5.90006-11.491,14.79846-19.8918,27.39375-23.94511,16.253-5.23039,34.40135-3.77807,50.116,2.649,15.814,6.46775,30.08661,18.79426,32.88265,36.13383.81108,5.02987,7.07028,7.82712,11.59527,6.58359,5.35028-1.47034,7.39705-6.55058,6.58359-11.59527Z"/></svg>