<svg id="Layer_1" data-name="Layer 1" xmlns="http://www.w3.org/2000/svg" viewBox="0 0 300 300"><defs><style>.cls-1{fill:#fff;}</style></defs><title>інстаграм</title><path class="cls-1" d="M30.20325,35.93891C14.89557,49.05578,10.03778,69.32182,8.647,88.6183c-1.7114,23.7456-.18134,48.03487,1.19385,71.76371,1.19472,20.61475,1.60692,42.64166,8.16071,62.41565,5.92626,17.88065,17.67586,31.25121,34.11461,40.24716,29.4446,16.11328,65.302,18.20674,98.16164,17.06921,32.08625-1.11076,63.88605-6.052,95.48716-11.43982,10.04531-1.71269,20.40041-3.71965,28.93743-9.64782,8.16806-5.672,13.60553-13.72266,16.98424-22.98257,5.24687-14.37989,3.89155-29.45817,3.72961-44.40362-.23974-22.12562.71133-44.17158-.75556-66.28789-1.71187-25.81-4.64592-55.49525-19.341-77.64287-6.37379-9.60625-14.7799-16.623-25.78553-20.23719-9.59867-3.15212-19.77454-4.64164-29.75291-5.99677A571.17489,571.17489,0,0,0,128.728,16.91591c-27.33609.6862-56.80776,1.95346-82.81553,11.21352A72.01586,72.01586,0,0,0,32.111,34.465c-10.29689,6.37275-.84058,22.68752,9.51511,16.27839,1.70783-1.057,3.47671-1.9593,5.27862-2.84228,2.29634-1.12525-.3636.06893,1.11564-.49891,1.34134-.5149,2.68035-1.02408,4.04033-1.48889a133.47838,133.47838,0,0,1,15.88674-4.23286,264.815,264.815,0,0,1,37.27116-4.80562,588.42008,588.42008,0,0,1,87.95049.60629c6.40643.50648,12.8051,1.1219,19.18593,1.88755,4.66824.56014,9.564,1.24337,15.45309,2.30878,4.53224.81994,9.05626,1.75554,13.49268,3.00131,1.62321.4558,3.20856,1.005,4.81327,1.51657,2.27467.72521-.33259-.30092,1.05308.40638,1.11436.5688,2.21645,1.14228,3.275,1.81153.6019.38054,2.69529,1.94677,1.15488.717.89722.71628,1.75441,1.48255,2.57952,2.28041.84612.81817,1.62218,1.68922,2.42023,2.55175.35835.38729.69.81021,1.02478,1.219-1.30574-1.59461.35069.48243.4849.67856a69.4511,69.4511,0,0,1,3.98123,6.49239q.83323,1.55976,1.58833,3.15979.4838,1.02051.93764,2.05462c.38952.88483-.31346-.81812.29628.71767,4.61888,11.63381,7.19071,24.04652,8.90786,36.41142,3.05329,21.98615,3.2308,47.45272,2.90754,70.85471-.09834,7.11894-.35892,14.25216.03991,21.36484.80937,14.43437,1.50131,33.41085-9.86464,44.2985-6.62182,6.34317-16.57415,7.64667-25.233,9.12586-6.00618,1.026-12.01395,2.04382-18.02876,3.01815-14.39032,2.331-28.64818,4.36138-43.14266,5.81082-31.16317,3.1163-63.90112,4.58145-94.51788-3.20684-13.05289-3.3204-26.37945-8.652-36.28251-17.25059-12.918-11.21642-16.65555-28.684-18.44129-44.99152-2.47418-22.59443-3.447-45.44027-3.97062-68.15341-.43468-18.8535-1.897-39.03715,3.882-57.28378A40.463,40.463,0,0,1,43.53382,49.26948c3.868-3.31437,3.40477-9.9258,0-13.33057-3.8338-3.8338-9.45306-3.32257-13.33057,0Z"/><path class="cls-1" d="M111.78049,107.724c-32.82549,2.71333-49.62163,35.27422-45.85515,65.48484,1.91769,15.38163,6.99573,30.74935,19.54374,40.65249,11.97053,9.4474,27.52323,14.43045,42.47174,16.49255,30.785,4.24672,62.09654-5.85925,80.97964-31.30806,16.84-22.69535,16.96382-54.96268-.80556-77.16831-24.092-30.10673-66.26275-22.67859-98.679-14.4717-11.75381,2.97574-6.77322,21.16246,5.01168,18.17885,22.88674-5.79427,49.90626-12.82318,71.353,1.12072,16.64565,10.82242,21.03919,34.61244,13.28679,52.07848-9.00074,20.27849-30.39289,32.43553-52.01469,33.68609a87.34133,87.34133,0,0,1-37.65176-6.36746c-9.76468-3.94985-17.93563-10.03627-21.423-20.28872-4.30912-12.66835-5.91981-27.43284-.46923-40.03884,4.18265-9.67354,13.40412-18.302,24.25186-19.19866,5.07376-.41939,9.42613-4.0321,9.42613-9.42614,0-4.77479-4.32393-9.84788-9.42613-9.42613Z"/><path class="cls-1" d="M199.26087,89.77566c.08777.18175.18173.35231.28535.52539a21.52926,21.52926,0,0,0,2.64567,3.41516,17.84068,17.84068,0,0,0,3.85369,3.02064,21.0673,21.0673,0,0,0,9.48463,2.66008,19.769,19.769,0,0,0,16.77279-8.9943,19.31817,19.31817,0,0,0,2.64381-9.69661,18.98491,18.98491,0,0,0-2.903-9.88826,20.47667,20.47667,0,0,0-7.151-6.87483,16.43824,16.43824,0,0,0-4.758-1.85207,22.63357,22.63357,0,0,0-9.09473.06458c-3.53972.61514-7.32432,3.99131-9.07014,6.97466a15.4972,15.4972,0,0,0-1.53,11.69463c1.18842,3.67233,3.46416,7.21539,6.97466,9.07014l3.62543,1.52995a15.28407,15.28407,0,0,0,8.0692,0l.34445-.05986-4.0346.54213a3.147,3.147,0,0,1,.68108-.00472l-4.0346-.54213a4.95128,4.95128,0,0,1,.97841.25016l-3.62543-1.52995a5.91279,5.91279,0,0,1,.88868.5105l-3.0716-2.37311a6.056,6.056,0,0,1,.97174.99159l-2.3731-3.0716a6.71985,6.71985,0,0,1,.51372.90634l-1.52995-3.62543a5.91212,5.91212,0,0,1,.282.9853l-.54213-4.0346a4.9511,4.9511,0,0,1,.00778,1.00985l.54213-4.0346a3.14682,3.14682,0,0,1-.16821.66l1.53-3.62543a4.46348,4.46348,0,0,1-.46171.82447l2.37311-3.0716a4.65939,4.65939,0,0,1-.62587.60855l3.0716-2.3731a5.33956,5.33956,0,0,1-.76006.43207l3.62544-1.52995a5.63328,5.63328,0,0,1-1.14567.30421l4.03461-.54213a6.18742,6.18742,0,0,1-1.20069-.0032l4.0346.54213a5.84044,5.84044,0,0,1-1.15084-.307l3.62543,1.52995a5.62155,5.62155,0,0,1-.76733-.42744l3.0716,2.37311a4.84452,4.84452,0,0,1-.63607-.59477l2.37311,3.0716a4.46488,4.46488,0,0,1-.46056-.76056c-1.57869-3.26894-5.68037-6.04119-9.07014-6.97466a15.51052,15.51052,0,0,0-11.69463,1.52995c-3.2406,2.08925-6.09324,5.20031-6.97466,9.07014l-.54213,4.0346a15.10672,15.10672,0,0,0,2.07208,7.66Z"/></svg>