<svg id="Layer_1" data-name="Layer 1" xmlns="http://www.w3.org/2000/svg" viewBox="0 0 2834.64567 872.75591"><defs><style>.cls-1{fill:#fff;}</style></defs><title>біле лого</title><path class="cls-1" d="M417.62671,559.87025l-42.49178-.15553V314.2926h77.954a65.14172,65.14172,0,0,1,37.18022,11.24784A79.9546,79.9546,0,0,1,516.67,355.22189q9.685,18.27839,9.686,41.08611v80.60975a88.84231,88.84231,0,0,1-9.686,41.39848,82.53785,82.53785,0,0,1-26.40093,29.99382,64.50917,64.50917,0,0,1-37.18022,11.40467Zm35.46219-47.80267q10.62117,0,18.74662-10.1552,7.96637-9.99513,7.96668-24.99463V397.86984q0-14.8391-8.12351-24.83844-7.96637-10.15357-18.58979-10.15455H421.5326V512.06758Z"/><path class="cls-1" d="M709.44649,559.87025h-47.491L625.8686,390.05935l-36.24311,169.8109H541.97834l52.49015-245.42146h62.644Z"/><path class="cls-1" d="M885.0375,559.71472H833.32893L789.43085,471.137h-9.99772v88.57772H733.03546V314.2926h88.42089a46.135,46.135,0,0,1,28.74434,9.52917,67.4568,67.4568,0,0,1,19.83991,24.68291,75.657,75.657,0,0,1,7.34259,33.43115v21.40175a95.94906,95.94906,0,0,1-2.031,19.059q-5.62457,27.80884-23.902,41.08547-6.87565,5.00243-10.93547,6.25ZM821.45635,425.98945q2.34276,0,5.93629-5.62392,3.59191-5.6236,3.59288-17.02795V381.93583q0-12.96489-8.59207-21.09a6.61207,6.61207,0,0,0-4.843-1.56184H779.2763l.15683,66.70548Z"/><path class="cls-1" d="M1051.5679,559.71472h-51.39621L969.5525,493.00794l-14.52836,31.86932v34.83746h-46.71V314.2926h46.71V412.242l44.83518-97.94941h51.55239l-56.083,122.47614Z"/><path class="cls-1" d="M1183.26148,559.87025l-42.49177-.15553V314.2926h77.954a65.14172,65.14172,0,0,1,37.18022,11.24784,79.95462,79.95462,0,0,1,26.40094,29.68145q9.685,18.27839,9.686,41.08611v80.60975a88.84243,88.84243,0,0,1-9.686,41.39848,82.53787,82.53787,0,0,1-26.40094,29.99382,64.50917,64.50917,0,0,1-37.18022,11.40467Zm35.46219-47.80267q10.62117,0,18.74662-10.1552,7.96636-9.99513,7.96668-24.99463V397.86984q0-14.8391-8.12351-24.83844-7.96635-10.15357-18.58979-10.15455h-31.5563V512.06758Z"/><path class="cls-1" d="M1405.09462,559.71472h-46.55385V440.83082L1299.802,314.2926l51.70857.31237,30.30683,72.017,29.99446-72.017h51.55369l-58.2709,126.22585Z"/><path class="cls-1" d="M1645.98546,559.71472h-45.30374L1533.507,428.17667V559.71472h-46.71V314.13642h45.30373l67.33151,132.16213V314.2926H1646.141Z"/><path class="cls-1" d="M1840.32373,559.87025h-47.4916l-36.08693-169.8109-36.24247,169.8109h-47.64714l52.48949-245.42146h62.6447Z"/><path class="cls-1" d="M2058.0948,559.71472h-46.55321v-106.699l-28.1196,80.45356h-44.679l-28.27643-80.92211V559.71472h-46.55321V314.2926h47.95951l49.209,141.53577,49.36582-141.53577h47.64714Z"/><path class="cls-1" d="M2130.26737,559.71472h-46.55321V314.2926h46.55321Z"/><path class="cls-1" d="M2243.37051,559.71472H2221.344a59.422,59.422,0,0,1-32.64959-9.37363,66.71345,66.71345,0,0,1-23.27725-24.8391,69.24223,69.24223,0,0,1-8.59206-34.21272V379.90479a70.12422,70.12422,0,0,1,8.59206-34.36826,68.32929,68.32929,0,0,1,23.27725-24.83909,60.17107,60.17107,0,0,1,32.64959-9.2168h22.65252a59.67591,59.67591,0,0,1,32.64958,9.2168,69.12326,69.12326,0,0,1,31.86932,57.17631V398.8076h-49.36581V377.87375a19.65183,19.65183,0,0,0-4.53128-12.65349q-4.68552-5.46709-10.62181-5.46774H2221.344q-6.09312,0-10.77864,5.78011-4.68747,5.62359-4.68682,14.37216V491.28927q0,8.59336,4.68682,14.37282,4.68552,5.78205,10.77864,5.77945h22.02648q13.43442,0,14.68519-13.43441.62214-5.62457.62474-23.12042h49.209q0,26.24475-.62474,32.49405-4.68552,27.33933-29.99381,43.27269Q2262.58439,559.71149,2243.37051,559.71472Z"/><path class="cls-1" d="M2400.52922,561.43209q-34.21207,0-51.39685-16.71493-17.18673-16.71428-17.18413-45.92846V482.07247h49.36581v19.372q0,19.84056,18.746,19.99544,8.747,0,13.74808-4.37444,4.99659-4.37057,4.99789-16.24573a43.24157,43.24157,0,0,0-7.65367-25.15146q-7.81372-10.93417-28.432-26.08921-27.65234-20.46367-38.89954-37.80561a68.651,68.651,0,0,1-11.24784-38.42969q0-28.89956,17.9657-45.46057,17.80887-16.55679,51.55239-16.55939,33.74352,0,50.77212,16.55939,17.02535,16.71818,17.0273,46.08531V387.0912h-49.36582V371.6251q0-11.55924-4.68681-15.77848-4.68552-4.37152-13.43442-4.3738-17.96636,0-17.9657,19.52754a37.297,37.297,0,0,0,7.96733,22.808q7.96732,10.62505,28.74434,26.08856,27.65235,20.31009,38.58717,37.80561,10.93224,17.4978,10.93547,40.46138,0,29.68209-17.96569,46.5532Q2434.58251,561.43534,2400.52922,561.43209Z"/></svg>