<svg id="Layer_1" data-name="Layer 1" xmlns="http://www.w3.org/2000/svg" viewBox="0 0 300 300"><defs><style>.cls-1{fill:#fff;}</style></defs><title>мейл</title><path class="cls-1" d="M9.09329,52.63155c1.78053,43.26532.30045,86.54866.47492,129.82963.0446,11.063.20248,22.126.55048,33.1839.28852,9.168-.66739,20.3674,6.787,27.1105,7.36189,6.65945,19.76533,5.43518,28.98612,5.99528q16.77062,1.01871,33.55664,1.7575,66.15372,2.91169,132.4035,1.44775,16.30338-.35937,32.59945-.9855c9.045-.347,19.17075.12423,27.38539-4.31655,9.24089-4.99556,11.618-14.323,13.1449-23.92726q2.55908-16.09713,4.20486-32.32971a544.18158,544.18158,0,0,0-5.42389-146.53943c-.73193-4.27032-5.22919-6.61421-9.08942-6.9203A1443.91978,1443.91978,0,0,0,112.713,33.16224Q73.20048,34.4724,33.80013,37.95839C22.54179,38.955,8.48161,41.62858,8.16278,55.87315,7.87867,68.56669,20.6171,76.70353,29.25615,83.77721q30.2668,24.78252,61.473,48.388,15.68625,11.87873,31.6047,23.44669c9.72079,7.06319,19.86379,14.51516,32.58376,12.34375,12.60741-2.15219,24.083-12.77288,33.78581-20.59916,11.25867-9.0812,22.20616-18.55623,32.94226-28.24772,13.21174-11.92627,26.17737-24.19641,38.26944-37.2664,9.09988-9.83582,18.8266-20.36143,23.84751-32.973,1.88366-4.7314-2.05946-10.35217-6.58358-11.59527-5.36495-1.47413-9.70468,1.83478-11.59527,6.58359,1.18071-2.96572-.122.16673-.4421.78341-.38986.75106-.80988,1.48638-1.24124,2.21424-1.25463,2.117-2.65489,4.14776-4.10652,6.13353-.32345.44247-.65189.88112-.98067,1.31961-1.61934,2.15968.67676-.84656-.36174.46946q-1.26346,1.6011-2.56562,3.171c-1.98719,2.39983-4.03423,4.74986-6.11541,7.06845-9.5914,10.68558-19.87767,20.74986-30.355,30.56q-15.66336,14.66587-32.058,28.529-6.92415,5.85957-14.00035,11.53726-1.42494,1.137-2.85926,2.262c-.40008.31508-.80256.6271-1.20443.93989-1.19114.92713,1.74308-1.319-.09609.0698-1.55524,1.1744-3.10786,2.35187-4.69654,3.48106-4.92034,3.49724-11.10012,8.71907-17.45853,6.60377-4.42518-1.47216-8.34647-4.711-12.08524-7.41261q-7.77969-5.6215-15.49661-11.32961Q91.08927,109.30544,63.49393,87.33313,49.22992,75.9702,35.17527,64.34769c-1.76058-1.45591-3.57853-2.87161-5.21-4.47483-.82492-.81065-1.52207-1.72719-2.284-2.572-1.50307-1.66654-.01892-1.33561-.69486-.76871-.02594.02175-.87167,2.2631-1.11328,1.62229-.07739-.20527,1.16954-.48886,1.28029-.50221,2.53209-.30528,5.05806-.702,7.63127-.928Q71.706,53.48168,108.76188,52.151a1443.7392,1443.7392,0,0,1,165.91134,3.63867l-9.08943-6.9203a525.16578,525.16578,0,0,1,6.52485,119.2843c-1.1134,19.03614-2.19087,39.25627-6.80307,57.82258-1.566,6.30394-8.56731,5.63672-13.94147,5.86517q-15.79869.6716-31.60787,1.07231-60.76138,1.58152-121.54417-.52074-30.61977-1.05933-61.19756-3.054c-2.10732-.13748-4.21547-.267-6.32074-.43343a4.54746,4.54746,0,0,1-1.61832-.37636c.1352.09473.77833.84748.51469.25817-1.25741-2.81062-.45023-8.0616-.555-11.17241-.32935-9.77448-.50443-19.55381-.58069-29.33338-.35264-45.22058,1.35151-90.445-.50884-135.65-.49749-12.08855-19.35236-12.15164-18.85227,0Z"/></svg>